<?xml version="1.0" encoding="utf-8"?>
<!-- Generator: Adobe Illustrator 16.0.0, SVG Export Plug-In . SVG Version: 6.00 Build 0)  -->
<!DOCTYPE svg PUBLIC "-//W3C//DTD SVG 1.1//EN" "http://www.w3.org/Graphics/SVG/1.1/DTD/svg11.dtd">
<svg version="1.1" id="Layer_1" xmlns="http://www.w3.org/2000/svg" xmlns:xlink="http://www.w3.org/1999/xlink" x="0px" y="0px"
	 width="1200px" height="400px" viewBox="0 0 1200 400" enable-background="new 0 0 1200 400" xml:space="preserve">
<path fill="#FFFFFF" d="M-6,340c0-48.83,56-101,110.279-31.761C78,230,199,190,220.845,270.11C238,181,350,204.148,357,279.344
	C378.713,242.719,415,269,408,305c11-70,128.636-88,130,22c14-55,93-59,100,9c8-60,85-64,93-5c-6.085-19.405,42-50,58-9.739
	c-6.005-69.479,89.75-59.636,95-14.261c-1-30,59-62,79-17c17.211-48.358,115-42,108,12c22-38,90-16,69,35c7-31,70-31,64,3
	c0,72.077,0,60,0,60H-4L-6,340z"/>
<path fill="#FFFFFF" d="M1204.402,150c0-48.83-56-101-110.279-31.761C1120.402,40,999.402,0,977.558,80.11
	C960.402-9,868.402,4.149,861.402,79.344c-21.713-36.625-78-10.344-71,25.656c-11-70-128.402-66-110,22c-14-55-113-59-120,9
	c-8-60-85-64-93-5c0.598-20-30.402-39.298-48-9.739c6.005-69.479-99.75-59.636-105-14.261c1-30-72.402-46-79,3
	c-9.402-47-115-42-108,12c-21-46-97.402-21-70,35c-20.402-36-69-21-63,13c0,72.077,0-170,0-170h1208L1204.402,150z"/>
</svg>
