<svg xmlns="http://www.w3.org/2000/svg" xmlns:xlink="http://www.w3.org/1999/xlink" version="1.1" x="0" y="0" width="100" height="100" viewBox="0" enable-background="new 0 0 100 100" xml:space="preserve">
  <path fill="#EC008C" d="M91.281 62.557c0.515-0.395 0.999-0.822 1.432-1.291 3.067-3.316 0.861-8.1-3.355-8.791 -1.345-0.222-2.89-0.105-4.447 0.262C85.886 28.896 68.27-2.39 34.07 3.671 0.753 9.576 2.769 43.937 10.48 62.729c-0.831 0.26-1.615 0.587-2.325 0.987 -3.765 2.128-3.72 6.208-0.383 8.575 0.658 0.467 1.411 0.833 2.218 1.109 -0.738 0.522-1.415 1.102-1.994 1.74 -4.396 4.844-2.348 10.57 3.468 13.765 7.056 3.877 12.279 0.266 16.705-5.099 1.158-1.404 2.083-2.343 2.788-4.005 0.004 0.001-0.004-0.001 0 0 -0.239 1.387 0.214 2.359 0.241 3.627 0.144 6.812 6.262 11.049 13.141 8.996 3.801-1.136 9.029-4.667 9.861-11.213 2.668 6.188 9.814 11.145 16.455 9.031 4.74-1.51 9.871-7.142 9-12.805 3.848 2.543 9.96 2.255 13.153-0.566C97.47 72.754 95.705 65.902 91.281 62.557z"/>
  <path fill="#FFFFFF" d="M83.707 54.156c-2.992 2.868-6.918 4.382-10.486 5.793C76.056 64.247 84.822 59.703 83.707 54.156z"/>
  <path fill="#FFFFFF" d="M72.015 60.393c-5.008 1.764-8.799 2.74-12.635 4.104C60.551 69.325 72.528 65.999 72.015 60.393z"/>
  <path fill="#FFFFFF" d="M57.91 64.973c0.327 4.562-11.533 8.256-14.695 3.184C48.83 67.774 53.401 66.274 57.91 64.973z"/>
  <path fill="#FFFFFF" d="M41.877 68.256c-4.364 0.573-9.861 0.648-13.875 0.211C30.977 75.235 41.377 72.371 41.877 68.256z"/>
  <path fill="#2E3192" d="M29.187 64.152c0.496-3.95 3.625-5.691 6.504-5.665 2.696 0.023 5.773 1.681 6.158 5.262l-2.033 0.218c-0.252-2.349-2.263-3.417-4.144-3.435 -1.829-0.016-4.094 0.989-4.457 3.875L29.187 64.152z"/>
  <path fill="#2E3192" d="M72.919 54.529c0.063-4.075 2.631-6.289 5.148-6.676 2.543-0.39 4.858 0.96 5.63 3.286l-1.941 0.644c-0.53-1.597-2.077-2.109-3.378-1.909 -1.545 0.238-3.367 1.608-3.414 4.687L72.919 54.529z"/>
</svg>